<svg width="276" height="72" viewBox="0 0 276 72" fill="none" xmlns="http://www.w3.org/2000/svg">
<path d="M100.209 31.5466L107.455 19.0267H110.905L101.983 33.9619L111.299 49.2915H107.849L100.307 36.4757L92.7658 49.2915H89.3647L98.5822 33.9619L89.5126 19.076H92.963L100.209 31.5466Z" fill="black"/>
<path d="M126.432 37.2157H119.038V49.3414H116.13V19.0766H125.199C128.157 19.0766 130.474 19.8653 132.1 21.4919C133.776 23.1185 134.614 25.3366 134.614 28.2448C134.614 30.2657 134.121 31.9909 133.135 33.4696C132.15 34.8991 130.819 35.9342 129.143 36.5257L135.797 49.1442V49.3907H132.692L126.432 37.2157ZM119.038 34.5047H125.643C127.516 34.5047 128.995 33.9132 130.079 32.7795C131.164 31.5966 131.706 30.1178 131.706 28.2941C131.706 26.2731 131.114 24.6465 129.981 23.5128C128.847 22.3791 127.22 21.7876 125.15 21.7876H119.038V34.5047Z" fill="black"/>
<path d="M142.699 31.6945H153.937V23.0193H140.924V19.0267H158.521V49.2915H140.776V45.3482H153.937V35.5885H142.699V31.6945Z" fill="black"/>
<path d="M184.794 49.3414H180.21L167.788 26.5689V49.3414H163.204V19.0766H167.788L180.21 41.8491V19.0766H184.794V49.3414Z" fill="black"/>
<path d="M211.953 45.4465C210.03 48.3054 206.728 49.7842 202.045 49.7842C198.546 49.7842 195.687 48.5026 193.567 45.8902C191.448 43.2777 190.363 39.7781 190.314 35.3911V33.1238C190.314 28.5397 191.3 24.9907 193.271 22.4276C195.243 19.9137 198.003 18.6321 201.602 18.6321C204.559 18.6321 206.925 19.4208 208.65 21.0474C210.375 22.674 211.509 25.04 211.953 28.2439H207.369C206.777 24.4978 204.904 22.6247 201.602 22.6247C197.412 22.6247 195.194 25.6808 194.898 31.8422L194.849 35.3419C194.849 38.6444 195.49 41.2075 196.771 43.0806C198.053 44.9536 199.827 45.8902 202.045 45.8902C204.214 45.8902 205.791 45.4465 206.827 44.51L207.369 43.9678V37.7571H201.602V34.011H211.903V45.4465H211.953Z" fill="black"/>
<path d="M222.796 49.3414H218.163V19.0766H222.747V49.3414H222.796Z" fill="black"/>
<path d="M250.941 49.3414H246.357L233.935 26.5689V49.3414H229.351V19.0766H233.935L246.357 41.8491V19.0766H250.941V49.3414Z" fill="black"/>
<path d="M273.32 35.6868H262.082V45.4465H275.242V49.3898H257.498V19.125H275.045V23.1176H262.032V31.7928H273.271V35.6868H273.32Z" fill="black"/>
<path fill-rule="evenodd" clip-rule="evenodd" d="M4.23904 71.5708H67.3318C69.6484 71.5708 71.5708 69.6484 71.5708 67.3318V4.23904C71.5708 1.87306 69.6484 0 67.3318 0H4.23904C1.87306 0 0 1.92236 0 4.23904V67.3318C0 69.6977 1.92236 71.5708 4.23904 71.5708ZM24.5473 24.942L19.8646 34.0609L15.2313 24.942H10.8937L17.7451 37.0184L10.7458 49.2919H15.1327L19.9632 40.0252L24.7938 49.2919H29.1807L22.132 37.0184L28.9342 24.942H24.5473ZM41.1584 39.9266H36.8701V49.3412H33.1732V24.942H40.7148C43.2779 24.942 45.2496 25.5828 46.5804 26.8644C47.9113 28.146 48.6014 29.9697 48.6014 32.385C48.6014 35.5396 47.2705 37.7578 44.6088 38.99L49.5872 49.0947V49.2919H45.6439L41.1584 39.9266ZM36.8208 36.7719H40.6655C41.9963 36.7719 43.0315 36.3776 43.7708 35.6382C44.5102 34.8496 44.9045 33.8638 44.9045 32.5822C44.9045 29.674 43.4751 28.1953 40.5669 28.1953H36.8208V36.7719ZM57.276 25.7794H55.9451V28.2933H57.5224C59.149 28.2933 59.987 29.1313 59.987 30.7086C59.987 31.3986 59.7898 31.9901 59.3955 32.3845C59.0012 32.8281 58.4097 33.0253 57.6703 33.0253C56.9309 33.0253 56.3887 32.7788 55.9944 32.3845C55.6001 31.9408 55.4029 31.4479 55.4029 30.8072H52.2483C52.2483 32.2859 52.6919 33.4689 53.6777 34.3561C54.6636 35.2434 55.9451 35.687 57.5224 35.687C59.0998 35.687 60.4306 35.2434 61.4657 34.4054C62.5009 33.5675 62.9938 32.3845 62.9938 30.8564C62.9938 28.8355 62.1065 27.5539 60.3813 27.0117C61.17 26.6667 61.7615 26.1738 62.1558 25.533C62.5994 24.8922 62.7966 24.2021 62.7966 23.4135C62.7966 21.9347 62.3037 20.801 61.4164 19.9631C60.5292 19.1251 59.1983 18.6815 57.5717 18.6815C56.0437 18.6815 54.8607 19.1251 53.8749 19.9631C52.9384 20.801 52.4454 21.9347 52.4454 23.2656H55.5508C55.5508 22.6741 55.748 22.1812 56.1423 21.8362C56.5366 21.4911 57.0295 21.3432 57.621 21.3432C58.3604 21.3432 58.9026 21.5897 59.2476 21.984C59.5927 22.3784 59.7405 22.9206 59.7405 23.5121C59.7405 25.0401 58.9026 25.7794 57.276 25.7794Z" fill="black"/>
</svg>
