<svg width="208" height="24" viewBox="0 0 208 24" fill="none" xmlns="http://www.w3.org/2000/svg">
<path d="M0.893022 23H13.6771V20.6562H3.53507V1.18182H0.893022V23ZM20.0399 23L22.2345 16.821H31.0555L33.2501 23H36.02L28.0086 1.18182H25.2813L17.27 23H20.0399ZM23.0654 14.4773L26.5597 4.63352H26.7302L30.2245 14.4773H23.0654ZM53.3078 8H56.0351C55.2254 3.78125 51.6885 0.883522 47.0862 0.883522C41.4932 0.883522 37.5407 5.1875 37.5407 12.0909C37.5407 18.9943 41.4612 23.2983 47.2567 23.2983C52.4555 23.2983 56.1629 19.8359 56.1629 14.4347V12.0909H47.8532V14.4347H53.6061C53.5315 18.3551 50.9534 20.8267 47.2567 20.8267C43.2084 20.8267 40.0976 17.7585 40.0976 12.0909C40.0976 6.4233 43.2084 3.35511 47.0862 3.35511C50.2396 3.35511 52.3809 5.13423 53.3078 8ZM75.0061 1.18182V15.4148C75.0061 18.6108 72.8115 20.9119 69.1681 20.9119C65.5246 20.9119 63.33 18.6108 63.33 15.4148V1.18182H60.6879V15.6278C60.6879 20.1023 64.0331 23.3835 69.1681 23.3835C74.303 23.3835 77.6482 20.1023 77.6482 15.6278V1.18182H75.0061ZM100.225 1.18182H97.626V18.3551H97.4129L85.4811 1.18182H82.9243V23H85.5663V5.86932H85.7794L97.6686 23H100.225V1.18182ZM106.407 23L108.602 16.821H117.423L119.617 23H122.387L114.376 1.18182H111.649L103.637 23H106.407ZM109.433 14.4773L112.927 4.63352H113.097L116.592 14.4773H109.433ZM134.223 23H147.007V20.6562H136.865V1.18182H134.223V23ZM153.37 23L155.565 16.821H164.386L166.58 23H169.35L161.339 1.18182H158.611L150.6 23H153.37ZM156.396 14.4773L159.89 4.63352H160.06L163.555 14.4773H156.396ZM172.748 23H180.632C185.788 23 187.919 20.4858 187.919 17.2045C187.919 13.7528 185.533 11.8778 183.53 11.75V11.5369C185.405 11.0256 187.067 9.78977 187.067 6.97727C187.067 3.78125 184.936 1.18182 180.376 1.18182H172.748V23ZM175.391 20.6562V13.071H180.76C183.615 13.071 185.405 14.9886 185.405 17.2045C185.405 19.1222 184.084 20.6562 180.632 20.6562H175.391ZM175.391 10.7699V3.52557H180.376C183.274 3.52557 184.552 5.05966 184.552 6.97727C184.552 9.27841 182.677 10.7699 180.291 10.7699H175.391ZM204.192 6.63636H206.749C206.632 3.34446 203.595 0.883522 199.377 0.883522C195.201 0.883522 191.919 3.3125 191.919 6.97727C191.919 9.91761 194.05 11.6648 197.459 12.6449L200.144 13.4119C202.445 14.0511 204.49 14.8608 204.49 17.0341C204.49 19.4205 202.189 20.9972 199.164 20.9972C196.564 20.9972 194.263 19.8466 194.05 17.375H191.323C191.578 20.9545 194.476 23.3835 199.164 23.3835C204.192 23.3835 207.047 20.6136 207.047 17.0767C207.047 12.9858 203.169 11.6648 200.911 11.0682L198.695 10.4716C197.076 10.0455 194.476 9.19318 194.476 6.84943C194.476 4.76136 196.394 3.22727 199.291 3.22727C201.934 3.22727 203.936 4.48438 204.192 6.63636Z" fill="url(#paint0_linear)"/>
<defs>
<linearGradient id="paint0_linear" x1="-2" y1="-6" x2="206.442" y2="41.2789" gradientUnits="userSpaceOnUse">
<stop stop-color="#5236FF"/>
<stop offset="1" stop-color="#C20560"/>
</linearGradient>
</defs>
</svg>
