<?xml version="1.0" encoding="utf-8"?>
<!-- Generator: Adobe Illustrator 23.1.1, SVG Export Plug-In . SVG Version: 6.00 Build 0)  -->
<svg version="1.1" id="Layer_1" xmlns="http://www.w3.org/2000/svg" xmlns:xlink="http://www.w3.org/1999/xlink" x="0px" y="0px"
	 viewBox="0 0 72 72" style="enable-background:new 0 0 72 72;" xml:space="preserve">
<style type="text/css">
	.st0{fill:#010101;}
	.st1{fill:none;}
</style>
<g>
	<g>
		<g>
			<path class="st0" d="M64.6,48.5V23.2c1.2-0.5,2-1.7,2-3.1c0-1.9-1.5-3.4-3.4-3.4c-0.8,0-1.4,0.2-2,0.7L39.1,4.5
				c0.1-1.4-0.8-2.7-2.1-3.3c-1.7-0.7-3.7,0.1-4.4,1.9c-0.7,1.7,0.1,3.7,1.9,4.4c0.6,0.2,1.2,0.3,1.8,0.2L46.7,26
				c-0.2,0.2-0.3,0.4-0.4,0.7h-21c-0.3-0.8-1-1.4-1.8-1.8c-1.7-0.7-3.7,0.1-4.4,1.9c-0.7,1.7,0.1,3.7,1.9,4.4
				c0.5,0.2,1.1,0.3,1.6,0.2l10.5,18.2c-0.2,0.2-0.3,0.4-0.4,0.7h-21c-0.5-1.5-2-2.6-3.7-2.4c-1.9,0.2-3.2,1.9-3,3.8
				c0.2,1.9,1.9,3.2,3.8,3c0.5-0.1,1-0.2,1.4-0.5L32.5,67c0,0.1,0,0.2,0,0.3c0,1.9,1.5,3.4,3.4,3.4s3.4-1.5,3.4-3.4
				c0-0.1,0-0.2,0-0.3l21.8-12.6c0.6,0.4,1.3,0.7,2.1,0.7c1.9,0,3.4-1.5,3.4-3.4C66.6,50.3,65.7,49.1,64.6,48.5z M25.4,29.4h21
				c0.1,0.2,0.2,0.4,0.4,0.6L36.2,48.2c-0.1,0-0.2,0-0.4,0s-0.2,0-0.4,0L25,30C25.1,29.8,25.3,29.6,25.4,29.4z M39,50.3
				c-0.1-0.2-0.2-0.5-0.4-0.7l10.5-18.2c0.1,0,0.2,0,0.4,0c0.1,0,0.3,0,0.4,0l10.5,18.2c-0.1,0.2-0.3,0.4-0.4,0.6H39V50.3z M52.3,30
				c0.4-0.6,0.6-1.2,0.6-2c0-0.1,0-0.3,0-0.4l8.3-4.8c0.2,0.1,0.4,0.3,0.6,0.4v23.3L52.3,30z M59.8,20.4l-8.3,4.8
				c-0.6-0.4-1.3-0.6-2-0.6c-0.1,0-0.2,0-0.3,0L39.6,8l20.2,11.7c0,0.1,0,0.2,0,0.4C59.7,20.2,59.8,20.3,59.8,20.4z M34.5,54.7v9.4
				c-0.2,0.1-0.5,0.2-0.7,0.4L13.9,53.1h18.8C33.1,53.8,33.7,54.4,34.5,54.7z M37.2,64.2v-9.4c0.7-0.3,1.4-0.9,1.7-1.7h18.8
				L37.9,64.6C37.7,64.4,37.5,64.3,37.2,64.2z"/>
			<path class="st0" d="M16.7,30c-1.3-1.3-3.3-1.3-4.6-0.1c-1.3,1.3-1.3,3.3-0.1,4.6c1.3,1.3,3.3,1.3,4.6,0.1
				C17.9,33.4,17.9,31.3,16.7,30z"/>
			<path class="st0" d="M21.6,44.4c1.3-1.3,1.3-3.3,0.1-4.6c-1.3-1.3-3.3-1.3-4.6-0.1C15.8,41,15.8,43,17,44.3
				C18.2,45.6,20.3,45.6,21.6,44.4z"/>
			<path class="st0" d="M30.7,20.8c1.3,1.3,3.3,1.3,4.6,0.1c1.3-1.3,1.3-3.3,0.1-4.6c-1.3-1.3-3.3-1.3-4.6-0.1
				C29.5,17.4,29.5,19.5,30.7,20.8z"/>
			<path class="st0" d="M26.2,9.2C28,9.4,29.7,8,29.9,6.1c0.2-1.9-1.2-3.5-3.1-3.7s-3.5,1.2-3.7,3.1C22.9,7.4,24.3,9.1,26.2,9.2z"/>
			<path class="st0" d="M18.8,13.2c1.8-0.4,3-2.2,2.6-4s-2.2-3-4-2.6s-3,2.2-2.6,4C15.1,12.4,17,13.6,18.8,13.2z"/>
			<path class="st0" d="M12.9,19.2c1.6-0.9,2.2-3,1.3-4.6c-0.9-1.7-3-2.2-4.6-1.3s-2.2,3-1.3,4.6S11.3,20.1,12.9,19.2z"/>
			<path class="st0" d="M9.1,26.6c1.3-1.4,1.3-3.5-0.1-4.8c-1.4-1.3-3.5-1.3-4.8,0.1s-1.3,3.5,0.1,4.8C5.6,28,7.8,28,9.1,26.6z"/>
			<path class="st0" d="M3,36.4c1.7,0.9,3.7,0.2,4.6-1.5s0.2-3.7-1.5-4.6s-3.7-0.2-4.6,1.5C0.6,33.5,1.3,35.5,3,36.4z"/>
			<path class="st0" d="M8.5,43.2c0.3-1.9-0.9-3.6-2.8-4c-1.9-0.3-3.6,0.9-4,2.8c-0.3,1.9,0.9,3.6,2.8,4C6.4,46.3,8.2,45.1,8.5,43.2
				z"/>
			<path class="st0" d="M18.9,18.1c-0.4,1.7,0.6,3.5,2.4,4c1.7,0.4,3.5-0.6,4-2.4c0.4-1.7-0.6-3.5-2.4-4
				C21.1,15.3,19.3,16.4,18.9,18.1z"/>
		</g>
	</g>
	<g>
		<rect class="st1" width="72" height="72"/>
	</g>
</g>
</svg>
